{
	"asset":{
		"generator":"Khronos glTF Blender I/O v4.0.44",
		"version":"2.0"
	},
	"extensionsUsed":[
		"KHR_materials_clearcoat",
		"KHR_materials_specular",
		"KHR_materials_sheen",
		"KHR_materials_ior"
	],
	"scene":0,
	"scenes":[
		{
			"name":"Scene",
			"nodes":[
				0
			]
		}
	],
	"nodes":[
		{
			"mesh":0,
			"name":"phone",
			"rotation":[
				0.7071068286895752,
				0,
				0,
				0.7071068286895752
			],
			"translation":[
				0.0032065401319414377,
				0,
				0
			]
		}
	],
	"materials":[
		{
			"doubleSided":true,
			"extensions":{
				"KHR_materials_clearcoat":{
					"clearcoatFactor":0.25,
					"clearcoatRoughnessFactor":0.15727272629737854
				},
				"KHR_materials_specular":{
					"specularColorFactor":[
						0.9318181872367859,
						0.9318181872367859,
						0.9318181872367859
					]
				},
				"KHR_materials_sheen":{
					"sheenColorFactor":[
						1.0,
						1.0,
						1.0
					],
					"sheenRoughnessFactor":0.5
				},
				"KHR_materials_ior":{
					"ior":1.4500000476837158
				}
			},
			"name":"Body",
			"pbrMetallicRoughness":{
				"baseColorFactor":[
					0,
					0,
					0,
					1
				],
				"metallicFactor":0.4227272868156433,
				"roughnessFactor":0.44999995827674866
			}
		},
		{
			"doubleSided":true,
			"extensions":{
				"KHR_materials_sheen":{
					"sheenColorFactor":[
						1.0,
						1.0,
						1.0
					],
					"sheenRoughnessFactor":0.5
				}
			},
			"name":"Screen",
			"pbrMetallicRoughness":{
				"baseColorFactor":[
					0,
					0.007430349476635456,
					0.8000000715255737,
					1
				],
				"metallicFactor":0.7454545497894287,
				"roughnessFactor":0.23181818425655365
			}
		},
		{
			"doubleSided":true,
			"extensions":{
				"KHR_materials_clearcoat":{
					"clearcoatFactor":0.07954545319080353,
					"clearcoatRoughnessFactor":0.029999999329447746
				},
				"KHR_materials_specular":{
					"specularFactor":0.6090909242630005
				},
				"KHR_materials_sheen":{
					"sheenColorFactor":[
						1.0,
						1.0,
						1.0
					],
					"sheenRoughnessFactor":0.5
				},
				"KHR_materials_ior":{
					"ior":1.4500000476837158
				}
			},
			"name":"Buttons",
			"pbrMetallicRoughness":{
				"baseColorFactor":[
					0,
					0,
					0,
					1
				],
				"metallicFactor":0,
				"roughnessFactor":0.7636363506317139
			}
		},
		{
			"doubleSided":true,
			"extensions":{
				"KHR_materials_specular":{
					"specularColorFactor":[
						1.0363636016845703,
						1.0363636016845703,
						1.0363636016845703
					]
				},
				"KHR_materials_ior":{
					"ior":1.4500000476837158
				}
			},
			"name":"Front Speaker",
			"pbrMetallicRoughness":{
				"baseColorFactor":[
					0,
					0,
					0,
					1
				],
				"metallicFactor":0
			}
		},
		{
			"doubleSided":true,
			"emissiveFactor":[
				0.0008940037738380535,
				0.0008940037738380535,
				0.0008940037738380535
			],
			"extensions":{
				"KHR_materials_clearcoat":{
					"clearcoatFactor":0.25,
					"clearcoatRoughnessFactor":0.029999999329447746
				},
				"KHR_materials_specular":{
					"specularColorFactor":[
						0.7176548838615417,
						0.7141691446304321,
						0.8314980864524841
					]
				},
				"KHR_materials_sheen":{
					"sheenColorFactor":[
						1.0,
						1.0,
						1.0
					],
					"sheenRoughnessFactor":0.5
				},
				"KHR_materials_ior":{
					"ior":1.4500000476837158
				}
			},
			"name":"Front Cam",
			"pbrMetallicRoughness":{
				"baseColorFactor":[
					0.027186520397663116,
					0.024542134255170822,
					0.11355030536651611,
					1
				],
				"metallicFactor":0.8954545259475708,
				"roughnessFactor":0.24545453488826752
			}
		},
		{
			"doubleSided":true,
			"extensions":{
				"KHR_materials_clearcoat":{
					"clearcoatFactor":0.25,
					"clearcoatRoughnessFactor":0.029999999329447746
				},
				"KHR_materials_sheen":{
					"sheenColorFactor":[
						1.0,
						1.0,
						1.0
					],
					"sheenRoughnessFactor":0.5
				}
			},
			"name":"Cam Ring",
			"pbrMetallicRoughness":{
				"baseColorFactor":[
					0.4477008581161499,
					0.4477008581161499,
					0.4477008581161499,
					1
				],
				"roughnessFactor":0.29545456171035767
			}
		},
		{
			"alphaMode":"BLEND",
			"doubleSided":true,
			"extensions":{
				"KHR_materials_clearcoat":{
					"clearcoatFactor":0.13409091532230377,
					"clearcoatRoughnessFactor":0.029999999329447746
				},
				"KHR_materials_specular":{
					"specularColorFactor":[
						0.7909091114997864,
						0.7909091114997864,
						0.7909091114997864
					]
				},
				"KHR_materials_sheen":{
					"sheenColorFactor":[
						1.0,
						1.0,
						1.0
					],
					"sheenRoughnessFactor":0.5
				},
				"KHR_materials_ior":{
					"ior":1.4500000476837158
				}
			},
			"name":"Cam Face",
			"pbrMetallicRoughness":{
				"baseColorFactor":[
					0,
					0,
					0,
					0.9727272391319275
				],
				"metallicFactor":0.6454545259475708,
				"roughnessFactor":0.34545451402664185
			}
		},
		{
			"doubleSided":true,
			"extensions":{
				"KHR_materials_sheen":{
					"sheenColorFactor":[
						1.0,
						1.0,
						1.0
					],
					"sheenRoughnessFactor":0.5
				}
			},
			"name":"Flash",
			"pbrMetallicRoughness":{
				"baseColorFactor":[
					0.800000011920929,
					0.800000011920929,
					0.800000011920929,
					1
				],
				"metallicFactor":0.5409091114997864,
				"roughnessFactor":0.699999988079071
			}
		}
	],
	"meshes":[
		{
			"name":"Plane.001",
			"primitives":[
				{
					"attributes":{
						"POSITION":0,
						"NORMAL":1,
						"TEXCOORD_0":2
					},
					"indices":3,
					"material":0
				},
				{
					"attributes":{
						"POSITION":4,
						"NORMAL":5,
						"TEXCOORD_0":6
					},
					"indices":7,
					"material":1
				},
				{
					"attributes":{
						"POSITION":8,
						"NORMAL":9,
						"TEXCOORD_0":10
					},
					"indices":11,
					"material":2
				},
				{
					"attributes":{
						"POSITION":12,
						"NORMAL":13,
						"TEXCOORD_0":14
					},
					"indices":15,
					"material":3
				},
				{
					"attributes":{
						"POSITION":16,
						"NORMAL":17,
						"TEXCOORD_0":18
					},
					"indices":19,
					"material":4
				},
				{
					"attributes":{
						"POSITION":20,
						"NORMAL":21,
						"TEXCOORD_0":22
					},
					"indices":23,
					"material":5
				},
				{
					"attributes":{
						"POSITION":24,
						"NORMAL":25,
						"TEXCOORD_0":26
					},
					"indices":27,
					"material":6
				},
				{
					"attributes":{
						"POSITION":28,
						"NORMAL":29,
						"TEXCOORD_0":30
					},
					"indices":31,
					"material":7
				},
				{
					"attributes":{
						"POSITION":32,
						"NORMAL":33,
						"TEXCOORD_0":34
					},
					"indices":35,
					"material":1
				}
			]
		}
	],
	"accessors":[
		{
			"bufferView":0,
			"componentType":5126,
			"count":6063,
			"max":[
				1.211097240447998,
				0.1489231437444687,
				2.4984583854675293
			],
			"min":[
				-1.2174828052520752,
				-0.15500006079673767,
				-2.4982504844665527
			],
			"type":"VEC3"
		},
		{
			"bufferView":1,
			"componentType":5126,
			"count":6063,
			"type":"VEC3"
		},
		{
			"bufferView":2,
			"componentType":5126,
			"count":6063,
			"type":"VEC2"
		},
		{
			"bufferView":3,
			"componentType":5123,
			"count":24651,
			"type":"SCALAR"
		},
		{
			"bufferView":4,
			"componentType":5126,
			"count":4,
			"max":[
				1.0548096895217896,
				0.14500004053115845,
				1.8710144758224487
			],
			"min":[
				-1.0483075380325317,
				0.14499995112419128,
				-1.8695894479751587
			],
			"type":"VEC3"
		},
		{
			"bufferView":5,
			"componentType":5126,
			"count":4,
			"type":"VEC3"
		},
		{
			"bufferView":6,
			"componentType":5126,
			"count":4,
			"type":"VEC2"
		},
		{
			"bufferView":7,
			"componentType":5123,
			"count":6,
			"type":"SCALAR"
		},
		{
			"bufferView":8,
			"componentType":5126,
			"count":1174,
			"max":[
				1.2393083572387695,
				0.1489231437444687,
				2.3562536239624023
			],
			"min":[
				-1.2481504678726196,
				-0.05181219056248665,
				-1.8551595211029053
			],
			"type":"VEC3"
		},
		{
			"bufferView":9,
			"componentType":5126,
			"count":1174,
			"type":"VEC3"
		},
		{
			"bufferView":10,
			"componentType":5126,
			"count":1174,
			"type":"VEC2"
		},
		{
			"bufferView":11,
			"componentType":5123,
			"count":5133,
			"type":"SCALAR"
		},
		{
			"bufferView":12,
			"componentType":5126,
			"count":64,
			"max":[
				0.604038655757904,
				0.1449999362230301,
				-2.0881338119506836
			],
			"min":[
				-0.22156977653503418,
				-0.14500005543231964,
				-2.1918153762817383
			],
			"type":"VEC3"
		},
		{
			"bufferView":13,
			"componentType":5126,
			"count":64,
			"type":"VEC3"
		},
		{
			"bufferView":14,
			"componentType":5126,
			"count":64,
			"type":"VEC2"
		},
		{
			"bufferView":15,
			"componentType":5123,
			"count":180,
			"type":"SCALAR"
		},
		{
			"bufferView":16,
			"componentType":5126,
			"count":32,
			"max":[
				-0.3476347327232361,
				0.1449999362230301,
				-2.1249639987945557
			],
			"min":[
				-0.441625714302063,
				0.1449999362230301,
				-2.2189548015594482
			],
			"type":"VEC3"
		},
		{
			"bufferView":17,
			"componentType":5126,
			"count":32,
			"type":"VEC3"
		},
		{
			"bufferView":18,
			"componentType":5126,
			"count":32,
			"type":"VEC2"
		},
		{
			"bufferView":19,
			"componentType":5123,
			"count":90,
			"type":"SCALAR"
		},
		{
			"bufferView":20,
			"componentType":5126,
			"count":71,
			"max":[
				1.0250380039215088,
				-0.15500006079673767,
				-1.9390159845352173
			],
			"min":[
				0.646361231803894,
				-0.15500006079673767,
				-2.317692756652832
			],
			"type":"VEC3"
		},
		{
			"bufferView":21,
			"componentType":5126,
			"count":71,
			"type":"VEC3"
		},
		{
			"bufferView":22,
			"componentType":5126,
			"count":71,
			"type":"VEC2"
		},
		{
			"bufferView":23,
			"componentType":5123,
			"count":201,
			"type":"SCALAR"
		},
		{
			"bufferView":24,
			"componentType":5126,
			"count":33,
			"max":[
				0.9735010862350464,
				-0.15500006079673767,
				-1.9905529022216797
			],
			"min":[
				0.6978981494903564,
				-0.15500006079673767,
				-2.26615571975708
			],
			"type":"VEC3"
		},
		{
			"bufferView":25,
			"componentType":5126,
			"count":33,
			"type":"VEC3"
		},
		{
			"bufferView":26,
			"componentType":5126,
			"count":33,
			"type":"VEC2"
		},
		{
			"bufferView":27,
			"componentType":5123,
			"count":93,
			"type":"SCALAR"
		},
		{
			"bufferView":28,
			"componentType":5126,
			"count":32,
			"max":[
				0.4641563892364502,
				-0.14500005543231964,
				-2.0516607761383057
			],
			"min":[
				0.30709540843963623,
				-0.14500005543231964,
				-2.208721876144409
			],
			"type":"VEC3"
		},
		{
			"bufferView":29,
			"componentType":5126,
			"count":32,
			"type":"VEC3"
		},
		{
			"bufferView":30,
			"componentType":5126,
			"count":32,
			"type":"VEC2"
		},
		{
			"bufferView":31,
			"componentType":5123,
			"count":90,
			"type":"SCALAR"
		},
		{
			"bufferView":32,
			"componentType":5126,
			"count":32,
			"max":[
				0.8795939683914185,
				-0.12591055035591125,
				-2.0844597816467285
			],
			"min":[
				0.79180508852005,
				-0.12591055035591125,
				-2.1722488403320312
			],
			"type":"VEC3"
		},
		{
			"bufferView":33,
			"componentType":5126,
			"count":32,
			"type":"VEC3"
		},
		{
			"bufferView":34,
			"componentType":5126,
			"count":32,
			"type":"VEC2"
		},
		{
			"bufferView":35,
			"componentType":5123,
			"count":90,
			"type":"SCALAR"
		}
	],
	"bufferViews":[
		{
			"buffer":0,
			"byteLength":72756,
			"byteOffset":0,
			"target":34962
		},
		{
			"buffer":0,
			"byteLength":72756,
			"byteOffset":72756,
			"target":34962
		},
		{
			"buffer":0,
			"byteLength":48504,
			"byteOffset":145512,
			"target":34962
		},
		{
			"buffer":0,
			"byteLength":49302,
			"byteOffset":194016,
			"target":34963
		},
		{
			"buffer":0,
			"byteLength":48,
			"byteOffset":243320,
			"target":34962
		},
		{
			"buffer":0,
			"byteLength":48,
			"byteOffset":243368,
			"target":34962
		},
		{
			"buffer":0,
			"byteLength":32,
			"byteOffset":243416,
			"target":34962
		},
		{
			"buffer":0,
			"byteLength":12,
			"byteOffset":243448,
			"target":34963
		},
		{
			"buffer":0,
			"byteLength":14088,
			"byteOffset":243460,
			"target":34962
		},
		{
			"buffer":0,
			"byteLength":14088,
			"byteOffset":257548,
			"target":34962
		},
		{
			"buffer":0,
			"byteLength":9392,
			"byteOffset":271636,
			"target":34962
		},
		{
			"buffer":0,
			"byteLength":10266,
			"byteOffset":281028,
			"target":34963
		},
		{
			"buffer":0,
			"byteLength":768,
			"byteOffset":291296,
			"target":34962
		},
		{
			"buffer":0,
			"byteLength":768,
			"byteOffset":292064,
			"target":34962
		},
		{
			"buffer":0,
			"byteLength":512,
			"byteOffset":292832,
			"target":34962
		},
		{
			"buffer":0,
			"byteLength":360,
			"byteOffset":293344,
			"target":34963
		},
		{
			"buffer":0,
			"byteLength":384,
			"byteOffset":293704,
			"target":34962
		},
		{
			"buffer":0,
			"byteLength":384,
			"byteOffset":294088,
			"target":34962
		},
		{
			"buffer":0,
			"byteLength":256,
			"byteOffset":294472,
			"target":34962
		},
		{
			"buffer":0,
			"byteLength":180,
			"byteOffset":294728,
			"target":34963
		},
		{
			"buffer":0,
			"byteLength":852,
			"byteOffset":294908,
			"target":34962
		},
		{
			"buffer":0,
			"byteLength":852,
			"byteOffset":295760,
			"target":34962
		},
		{
			"buffer":0,
			"byteLength":568,
			"byteOffset":296612,
			"target":34962
		},
		{
			"buffer":0,
			"byteLength":402,
			"byteOffset":297180,
			"target":34963
		},
		{
			"buffer":0,
			"byteLength":396,
			"byteOffset":297584,
			"target":34962
		},
		{
			"buffer":0,
			"byteLength":396,
			"byteOffset":297980,
			"target":34962
		},
		{
			"buffer":0,
			"byteLength":264,
			"byteOffset":298376,
			"target":34962
		},
		{
			"buffer":0,
			"byteLength":186,
			"byteOffset":298640,
			"target":34963
		},
		{
			"buffer":0,
			"byteLength":384,
			"byteOffset":298828,
			"target":34962
		},
		{
			"buffer":0,
			"byteLength":384,
			"byteOffset":299212,
			"target":34962
		},
		{
			"buffer":0,
			"byteLength":256,
			"byteOffset":299596,
			"target":34962
		},
		{
			"buffer":0,
			"byteLength":180,
			"byteOffset":299852,
			"target":34963
		},
		{
			"buffer":0,
			"byteLength":384,
			"byteOffset":300032,
			"target":34962
		},
		{
			"buffer":0,
			"byteLength":384,
			"byteOffset":300416,
			"target":34962
		},
		{
			"buffer":0,
			"byteLength":256,
			"byteOffset":300800,
			"target":34962
		},
		{
			"buffer":0,
			"byteLength":180,
			"byteOffset":301056,
			"target":34963
		}
	],
	"buffers":[
		{
			"byteLength":301236,
			"uri":"iPhoneSE.bin"
		}
	]
}
